<svg xmlns="http://www.w3.org/2000/svg" width="816.198" height="151.217" viewBox="0 0 215.952 40.009"><g style="font-style:normal;font-variant:normal;font-weight:800;font-stretch:normal;font-size:12.43013px;line-height:1.25;font-family:'Open Sans';-inkscape-font-specification:'Open Sans Ultra-Bold';letter-spacing:0;word-spacing:0;opacity:1;fill:#fff;fill-opacity:1;stroke:none;stroke-width:.31075326" aria-label="オシアネテイ"><path style="font-style:normal;font-variant:normal;font-weight:700;font-stretch:normal;font-family:GN-Koharuiro_Sunray;-inkscape-font-specification:'GN-Koharuiro_Sunray Bold';letter-spacing:4.76249981px;fill:#fff;stroke-width:.31075326" d="M196.578 84.767v-2.294c-.356.413-.89.886-1.602 1.42-.713.534-1.635.826-2.768.874.777-.534 1.416-1.096 1.918-1.687.502-.59.995-1.428 1.48-2.513h-3.155v-.85h4.127v-.946h1.82v.947h1.215c0 .566-.235.85-.704.85h-.51v3.592c0 .17-.061.316-.182.437a.576.576 0 0 1-.425.17zM205.237 84.78l-.291-1.724c1.731-.227 3.099-.526 4.102-.899a18.857 18.857 0 0 0 3.06-1.48c-.632 1.133-1.542 2.055-2.732 2.767-1.19.704-2.57 1.15-4.14 1.335zm3.569-5.79-.547 1.298c-.558-.372-1.035-.643-1.432-.813-.396-.17-.882-.409-1.457-.716.77-.122 1.409-.15 1.918-.085.518.064 1.024.17 1.518.315zm-.437 1.71-.547 1.3c-.558-.373-1.035-.64-1.432-.801-.396-.17-.882-.413-1.457-.729.77-.121 1.409-.15 1.918-.085.518.065 1.024.17 1.518.316zM217.586 79.875v-.861h6.324c.462 0 .692.254.692.764 0 .583-.234 1.15-.704 1.7-.469.55-1.242.789-2.318.716.445-.364.736-.749.874-1.153.137-.405.202-.793.194-1.166zm-.121 4.868c.42-.356.85-.89 1.286-1.602.446-.72.68-1.675.705-2.865l2.087.133c-.186 1.214-.66 2.254-1.42 3.12-.752.858-1.639 1.263-2.658 1.214zM230.36 80.167v-.862h2.185v-.728h1.821v.728h1.736c.461 0 .692.255.692.765-.122.655-.506 1.21-1.153 1.663a25.4 25.4 0 0 1 2.148.267l-.485 1.566a69.923 69.923 0 0 0-2.768-1.263 1.423 1.423 0 0 0-.17.06v2.392h-1.82v-1.87c-1.085.268-1.955.405-2.61.414 2.888-1.465 4.442-2.51 4.66-3.132zM249.714 78.99c0 .566-.235.849-.704.849h-5.584v-.85zm.437 1.674c0 .567-.235.85-.704.85h-1.433c-.048.81-.384 1.582-1.007 2.319-.64.647-1.74.95-3.302.91.987-.413 1.626-.922 1.918-1.53.291-.614.437-1.18.437-1.699h-2.926v-.85zM255.496 81.696a27.048 27.048 0 0 0 3.423-1.408c1.076-.534 1.861-1.084 2.355-1.65l1.857.995c-.607.558-1.533 1.023-2.78 1.396v3.726h-1.82v-3.302a14.034 14.034 0 0 1-3.035.243z" transform="translate(-57.534 -44.77)"/></g><g style="opacity:1"><path d="M71.328 61.225a.39.39 0 0 0-.39.39v.126c0 .216.173.39.39.39h6.678a.39.39 0 0 0 .39-.39v-.126a.39.39 0 0 0-.39-.39zm-20.39.042c.038.304.084.606.14.907h13.786a.39.39 0 0 0 .39-.39v-.126a.39.39 0 0 0-.39-.39zm27.647 2.459a.369.369 0 0 0-.37.37v.118c0 .205.166.37.37.37h3.172c.103-.284.198-.57.285-.858zm-23.122.516a.39.39 0 0 0-.39.39v.126c0 .216.173.39.39.39h2.542a.39.39 0 0 0 .39-.39v-.126a.39.39 0 0 0-.39-.39zm5.873.017a.39.39 0 0 0-.39.39v.126c0 .216.174.39.39.39h13.44a.39.39 0 0 0 .39-.39v-.126a.39.39 0 0 0-.39-.39zm-8.774 2.23c.13.253.265.503.408.749h3.976a.322.322 0 0 0 .322-.323v-.104a.322.322 0 0 0-.322-.323zm20.382.162a.386.386 0 0 0-.386.386v.124c0 .215.172.387.386.387h7.396c.181-.293.353-.593.515-.897zm-18.79 2.333c.307.396.633.778.977 1.144h12.361c.273 0 .493-.22.493-.493v-.158a.492.492 0 0 0-.493-.493zm21.081.387a.467.467 0 0 0-.468.468v.15c0 .26.209.47.468.47h2.825c.343-.348.67-.71.98-1.088zm-10.1 2.732a.372.372 0 0 0-.373.372v.12c0 .207.166.373.373.373h9.676c.454-.266.895-.555 1.32-.865zm-4.98.022a.39.39 0 0 0-.39.39v.126c0 .216.174.39.39.39h2.542a.39.39 0 0 0 .39-.39v-.126a.39.39 0 0 0-.39-.39z" style="opacity:1;fill:#fff;fill-opacity:1;stroke:none;stroke-width:.01800315;stroke-linecap:butt;stroke-linejoin:bevel;stroke-miterlimit:4;stroke-dasharray:none;stroke-opacity:1;paint-order:stroke fill markers;enable-background:new" transform="translate(-50.774 -43.243)"/><path d="M66.74 43.243c-8.8.002-15.94 7.122-15.966 15.922h31.932c-.025-8.8-7.166-15.921-15.967-15.922z" style="opacity:1;fill:#fff;fill-opacity:1;stroke:none;stroke-width:1.07737184;stroke-linecap:butt;stroke-linejoin:bevel;stroke-miterlimit:4;stroke-dasharray:none;stroke-opacity:1;paint-order:stroke fill markers" transform="translate(-50.774 -43.243)"/><g style="font-style:normal;font-variant:normal;font-weight:800;font-stretch:normal;font-size:43.86327362px;line-height:1.25;font-family:'Open Sans';-inkscape-font-specification:'Open Sans Ultra-Bold';letter-spacing:0;word-spacing:0;fill:#fff;fill-opacity:1;stroke:none;stroke-width:1.09658182" aria-label="CEANITY"><path style="font-style:normal;font-variant:normal;font-weight:700;font-stretch:normal;font-family:OpineHeavy;-inkscape-font-specification:'OpineHeavy Bold';fill:#fff;stroke-width:4.06013727" d="m430.498 170.588-12.475 34.517v47.211l12.346 35.204h64.7l11.663-32.807h-45.507v-10.068h33.843v-31.506h-33.843v-9.744h33.843l11.664-32.807z" transform="matrix(.26458 0 0 .26458 -52.736 -44.266)"/><path style="font-style:normal;font-variant:normal;font-weight:700;font-stretch:normal;font-family:OpineHeavy;-inkscape-font-specification:'OpineHeavy Bold';fill:#fff;stroke-width:1.09658182" d="m173.94 36.966 11.229-31.581h12.15l11.229 31.581h-12.633l-.877-4.035h-7.589l-.92 4.035zm19.738-12.018-1.71-7.545c-.428-2.202-.888-2.602-1.404 0l-1.71 7.545z" transform="translate(-90.145 -4.406) scale(.97963)"/><path style="font-style:normal;font-variant:normal;font-weight:700;font-stretch:normal;font-family:OpineHeavy;-inkscape-font-specification:'OpineHeavy Bold';fill:#fff;stroke-width:4.06013727" d="M631.816 170.588v98.626l6.51 18.306h35.553l-.975-44.012c-.254-11.931 5.885-.755 6.659.486l26.958 43.526h43.04V170.588h-42.065l.813 46.123c.225 12.258-4.118 3.653-6.334.162l-27.772-46.285z" transform="matrix(.26458 0 0 .26458 -52.736 -44.266)"/><path style="font-style:normal;font-variant:normal;font-weight:700;font-stretch:normal;font-family:OpineHeavy;-inkscape-font-specification:'OpineHeavy Bold';fill:#fff;stroke-width:1.09658182" d="M242.674 36.966V5.385h11.698v31.581zM256.414 15.473V5.385h25.966l-2.939 10.088h-5.22v21.493h-11.667V15.473z" transform="translate(-90.145 -4.406) scale(.97963)"/><path style="font-style:normal;font-variant:normal;font-weight:700;font-stretch:normal;font-family:OpineHeavy;-inkscape-font-specification:'OpineHeavy Bold';fill:#fff;stroke-width:4.06013727" d="m911.691 170.588-5.545 19.035 27.678 47.713v50.184h42.551v-50.184l39.139-66.748h-46.285L957.21 195.6c-1.33 2.62-2.728 2.981-4.223 0l-12.017-25.012z" transform="matrix(.26458 0 0 .26458 -52.736 -44.266)"/></g><path d="m109.947 44.095-3.282 9.15c-5.239 0-6.843.32-9.032 2.396-1.094 1.067-1.641 2.38-1.641 3.94 0 1.093.328 2.12.985 3.077 2.195 2.217 3.225 3.078 9.688 3.078l3.241 9.314c-3.266 0-6.359-.028-9.15 0-.93 0-1.887-.083-2.872-.247-3.94-.684-7.126-2.434-9.56-5.252-2.408-2.818-3.612-6.128-3.612-9.93 0-1.121.123-2.257.37-3.406.629-3.063 2.12-5.676 4.472-7.837 2.38-2.188 5.252-3.542 8.617-4.062.793-.11 1.354-.164 1.682-.164.329-.028.588-.041.78-.041 4.519 0 6.007-.016 9.314-.016z" style="font-style:normal;font-variant:normal;font-weight:400;font-stretch:normal;font-size:41.03264618px;line-height:1.25;font-family:OpineHeavy;-inkscape-font-specification:OpineHeavy;letter-spacing:0;word-spacing:0;fill:#fff;fill-opacity:1;stroke:none;stroke-width:1.02581608" transform="translate(-50.774 -43.243)"/></g></svg>